PathFileType	4	(X/Y/Z)	Patient4_TMGait_0pt6_02_right_39.trc.trc
DataRate	CameraRate	NumFrames	NumMarkers	Units	OrigDataRate	OrigDataStartFrame	OrigNumFrames
83.832335329341	83.832335329341	6	33	mm	83.832335329341	106	       141
Frame#	Time	Sacral			L.Shoulder			Chest			R.Shoulder			Neck			R.ASIS			L.ASIS			R.Thigh.Superior			R.Thigh.Lateral			R.Thigh.Inferior			R.Patella			L.Thigh.Superior			L.Thigh.Lateral			L.Thigh.Inferior			L.Patella			L.Shank.Superior			L.Shank.Lateral			L.Shank.Inferior			R.Shank.Superior			R.Shank.Lateral			R.Shank.Inferior			R.Heel			R.Midfoot.Superior			R.Midfoot.Lateral			R.Toe			L.Heel			L.Midfoot.Lateral			L.Midfoot.Superior			L.Toe			L.Elbow			L.Wrist			R.Elbow			R.Wrist			
		X1	Y1	Z1	X2	Y2	Z2	X3	Y3	Z3	X4	Y4	Z4	X5	Y5	Z5	X6	Y6	Z6	X7	Y7	Z7	X8	Y8	Z8	X9	Y9	Z9	X10	Y10	Z10	X11	Y11	Z11	X12	Y12	Z12	X13	Y13	Z13	X14	Y14	Z14	X15	Y15	Z15	X16	Y16	Z16	X17	Y17	Z17	X18	Y18	Z18	X19	Y19	Z19	X20	Y20	Z20	X21	Y21	Z21	X22	Y22	Z22	X23	Y23	Z23	X24	Y24	Z24	X25	Y25	Z25	X26	Y26	Z26	X27	Y27	Z27	X28	Y28	Z28	X29	Y29	Z29	X30	Y30	Z30	X31	Y31	Z31	X32	Y32	Z32	X33	Y33	Z33	

106	48.292500000000	806.353651680946	1018.859224065169	472.711616761397	1018.090250991785	1437.501609548970	295.109219741253	1113.203663230978	1356.702088435239	455.823107321537	1034.031040898190	1438.496608842275	628.631895403045	1023.446385456889	1496.426054252508	446.154282548181	1028.613884234651	947.247648420776	592.692745373603	1019.927835724271	962.959555930592	318.181537614279	1118.092220024413	791.273690805412	561.932145234642	1090.336420134880	670.901646158917	641.835975564386	1181.394069120205	637.062350200276	561.205308369145	1211.807659845644	526.423632181358	585.991068580801	1051.402396950717	746.336496794621	349.604061269177	952.667345621845	639.001243214885	291.484151341790	1026.824432580622	554.898100023987	357.054956833978	1020.507191887746	487.189196848644	369.061786975220	994.593061117712	418.255388223335	361.311268651266	905.063110465112	304.576174832849	308.879757971511	949.915537687553	193.919807797152	385.379052809892	1143.155796227915	445.253921915473	594.487749056131	1028.056886395169	392.228832879859	656.019347407793	1025.405886351925	282.248798541108	607.968989509042	833.320536441974	201.272484177458	583.388612033229	1007.233256003858	156.410268908814	621.906510889131	897.866164983494	144.561865080839	654.038521929162	1079.970781226273	47.222924993284	642.442763541823	817.836764377547	39.115868537243	426.663587698358	895.246259004868	36.151314595183	349.210008329707	977.533608719725	96.012088810279	378.785549190219	1107.143047965619	42.253941762778	356.586916587240	970.107942412952	1105.134837922137	139.238616364764	1169.372609985722	937.920003288748	151.276597884201	951.063778164367	1106.779290498464	760.745601503476	1026.698759655099	855.124854456746	768.151722711595	
107	48.304428571429	805.619913772560	1018.865579290127	472.550332292154	1018.686538812143	1437.178984293815	295.316696805793	1112.956554338050	1356.356723576816	456.499344631459	1033.090970235453	1438.382877834680	628.785576839639	1023.426150314257	1496.213798801844	446.353630406855	1027.573699208593	947.255294508918	593.209134965019	1020.274261553653	963.345844834949	318.420317728038	1117.387451585317	792.143378787623	562.569487319851	1090.451659675518	671.803369656829	642.891138240843	1181.454083755403	638.301360890316	562.247300473124	1213.277004896244	529.092858469117	587.295248624987	1049.219598090770	745.478763635506	349.958131654134	949.356267489586	638.969703476893	291.582724690383	1022.519900006039	554.116327732125	357.185400331847	1015.606766685597	486.608288752629	369.130524996087	989.412350590002	417.861740434696	361.388062521944	899.276052580459	304.706697953100	308.925149667736	943.413603535489	193.767084834470	385.401575497931	1147.552802582591	446.357177660923	596.111712027443	1035.173211381205	388.641100420893	658.315607527311	1036.963263244795	278.532893002540	610.415860709924	848.366808209413	189.433934406775	586.840774631063	1024.210078637181	152.021772161777	624.744608784690	915.564898059111	135.739578182113	657.462392430162	1101.542265097728	46.031760895818	645.325449353298	810.683294270324	39.239938495813	426.652893194546	888.095950434025	36.192442560004	349.222252649616	970.459365583257	95.956182085795	378.785518535329	1100.008922596572	42.032189646958	356.558007404840	974.192773584399	1105.526763572921	137.809591639912	1179.346336241980	946.329854136862	151.837782342711	946.217390138065	1108.587931817274	762.386411920867	1015.902673811541	855.331219438652	773.819772041272	
108	48.316357142857	804.937285483842	1018.846498553388	472.573885127922	1019.251210663176	1436.786352322904	295.650139756670	1112.765414623523	1355.938820257135	457.249566575002	1032.260649570413	1438.210046951689	629.005075419308	1023.491233797261	1495.929999427137	446.663284277406	1026.615798035024	947.146653517640	593.818892171444	1020.976491076328	963.914089030675	318.642261079189	1116.410753926001	792.560838382812	563.345793550428	1089.963789989854	672.254786009897	644.049195649836	1180.894235209087	638.927742444265	563.458487538376	1213.934115238917	531.291313485754	588.696686093932	1047.143583715627	744.613652237313	350.271769928121	946.059386176177	638.931096443345	291.780040785705	1018.297463036662	553.336501607341	357.336481917206	1010.806187590462	486.027550160472	369.228405826389	984.301203418881	417.457108001723	361.502368524663	893.514079098307	304.858665634419	309.016464038906	936.943253974720	193.617834684414	385.439844718635	1151.367815992039	447.131723347208	597.856482998896	1042.117750571226	384.606839192487	660.792729800130	1048.660967625656	274.566055052658	613.057557948588	864.256930388029	176.974183875941	590.451063033524	1041.696197994087	147.569740331934	627.797007319997	934.054846213056	126.695193234717	661.148797456636	1123.732973617629	45.300826459113	648.625513044726	803.543237955680	39.381809197656	426.635592778729	880.946896854085	36.237388086923	349.241533245505	963.386976774085	95.903967666484	378.791929477614	1092.867919123429	41.823425118813	356.528281685305	978.178141248500	1105.799830371988	136.734142503779	1188.909513443624	954.899205499700	152.697916752475	941.437200542023	1110.435571524221	764.101281601548	1005.565241246984	855.875825494063	779.037313940897	
109	48.328285714286	804.323542605841	1018.807259314514	472.781904349894	1019.790663930809	1436.334140449698	296.109753129279	1112.641636320047	1355.455302178913	458.071145779100	1031.576230366394	1437.985650700912	629.310599692837	1023.646570949905	1495.579287548396	447.081875120258	1025.752138569096	946.921605987814	594.526338587042	1022.057604249157	964.653776935330	318.853197691788	1115.162278146228	792.505992914887	564.269713578063	1088.849441989563	672.233551392280	645.310200179291	1179.695726936060	638.912014910292	564.832393758212	1213.756828444510	532.986269233080	590.168045186568	1045.154069554822	743.735310871456	350.571986607010	942.769135600681	638.885803770780	292.075742853070	1014.139270538772	552.562499214620	357.511652645610	1006.079497927999	485.444575491158	369.358554607457	979.234249880382	417.046640025693	361.652036202737	887.757729420086	305.032118873237	309.152465951536	930.493128901813	193.475547695176	385.494624354163	1154.563027400877	447.588085546628	599.693412164881	1048.868566160536	380.191153480673	663.417355808646	1060.447029819408	270.455060695033	615.841384061643	880.996686283053	164.072137276692	594.149515201990	1059.632999045286	143.214926693032	631.007342846566	953.296668798955	117.591172263786	665.010844868315	1146.419509871241	45.194550688117	652.231213538587	796.412763935558	39.540858722577	426.608091030666	873.796551141799	36.285120244495	349.266890787827	956.313958025986	95.859059299990	378.799549902114	1085.716357554067	41.630824381093	356.498669127714	982.054641233346	1105.953065680510	136.018335148693	1198.019679206589	963.581294889498	153.854429398139	936.751444004941	1112.313230926902	765.865911999053	995.729835997612	856.695474388527	783.802760091077	
110	48.340214285714	803.798584897627	1018.743431367856	473.171239908163	1020.312611909781	1435.829634871496	296.696498982759	1112.593615315056	1354.910679504238	458.964337218910	1031.067391810275	1437.712959462342	629.722992510739	1023.890368501019	1495.163963574266	447.608871257729	1024.997187981540	946.578112607316	595.335982312036	1023.509031716826	965.526925285985	319.072662192121	1113.653318073995	791.960161928209	565.352513046868	1087.102339851900	671.724912885676	646.678755476440	1177.852101944736	638.232865591838	566.359901505039	1212.740119409866	534.151814973234	591.682192020132	1043.223293528192	742.836250461115	350.893843357452	939.476508003203	638.834660878621	292.464136198287	1010.018598811774	551.795843863380	357.714474056729	1001.392783979930	484.856848188007	369.520273743668	974.178542608506	416.635727674392	361.832154741191	881.983133476236	305.225147128233	309.329379907331	924.048967274792	193.343021049975	385.565263777221	1157.108908093369	447.736504588781	601.594846988022	1055.393692400038	375.461700506222	666.151149176550	1072.246177004445	266.303977574198	618.707740107179	898.539748900486	150.923194746791	597.859940944438	1077.921068056927	139.104865346680	634.310339515602	973.200408023879	108.588201092886	668.948362921894	1169.431592986191	45.840088511421	656.019719021947	789.287435082820	39.714044379541	426.569979770799	866.642429511391	36.334617026940	349.297199802940	949.237992509851	95.823927066345	378.803932646793	1078.551585946230	41.456930696061	356.470134679238	985.807710624364	1105.987016962449	135.663244558548	1206.637660563665	972.327769557643	155.303085263493	932.196281341486	1114.206437921965	767.662885522223	986.437297971715	857.726523114589	788.117839435299	
111	48.352142857143	803.383806174218	1018.640219336443	473.737621269428	1020.824410667952	1435.275982941083	297.412419624658	1112.625413339745	1354.306213771389	459.932295552194	1030.752156173451	1437.389797084698	630.260494095126	1024.213759524236	1494.683275474038	448.245232808694	1024.368339834581	946.112463039732	596.251497249541	1025.289322578792	966.471263771313	319.332253638500	1111.908125449535	790.909488867519	566.605171520701	1084.739903766299	670.724300750625	648.162247473291	1175.375181729651	636.882595204468	568.027531088713	1210.900715564375	534.771680432584	593.212197874001	1041.320204013168	741.907509824480	351.276365040053	936.172314164159	638.778759802709	292.935825022621	1005.902748932429	551.035518458765	357.949167129515	996.707576404758	484.261720439579	369.710444414177	969.097098833126	416.229515731609	362.036650305247	876.164526558296	305.434217481954	309.541778825530	917.595345858028	193.221975983959	385.650168922670	1158.987672959260	447.584510546187	603.534016491182	1061.647871213191	370.486793254206	668.948477224720	1083.953520524892	262.208109305793	621.590167854778	916.768384008514	137.738480358184	601.498491375371	1096.406434714497	135.361752063067	637.630017309099	993.607009367410	99.840537006101	672.849845323211	1192.539082140954	47.310130904455	659.860917401959	782.162943774540	39.895872559712	426.524055889846	859.482383635876	36.384762616490	349.331286656381	942.156872552527	95.799481721897	378.802324824987	1071.372268816425	41.303686838319	356.443280804283	989.418950122210	1105.902515552272	135.664715106649	1214.727585213941	981.087677151609	157.036347852256	927.812337222306	1116.094139975037	769.482519626990	977.726830259617	858.904694399763	791.987122601082	
